<?xml version="1.0"?>
<svg xmlns="http://www.w3.org/2000/svg" viewBox="0 0 50 50">
    <path style="line-height:normal;text-indent:0;text-align:start;text-decoration-line:none;text-decoration-style:solid;text-decoration-color:#000;text-transform:none;block-progression:tb;isolation:auto;mix-blend-mode:normal" d="M 29.984375 5.9863281 A 1.0001 1.0001 0 0 0 29.839844 6 L 5 6 C 3.3550302 6 2 7.3550302 2 9 L 2 41 C 2 42.64497 3.3550302 44 5 44 L 29.832031 44 A 1.0001 1.0001 0 0 0 30.158203 44 L 45 44 C 46.64497 44 48 42.64497 48 41 L 48 9 C 48 7.3550302 46.64497 6 45 6 L 30.154297 6 A 1.0001 1.0001 0 0 0 29.984375 5.9863281 z M 5 8 L 29 8 L 29 42 L 5 42 C 4.4349698 42 4 41.56503 4 41 L 4 9 C 4 8.4349698 4.4349698 8 5 8 z M 31 8 L 45 8 C 45.56503 8 46 8.4349698 46 9 L 46 41 C 46 41.56503 45.56503 42 45 42 L 31 42 L 31 8 z M 13.917969 18.990234 A 1.0001 1.0001 0 0 0 13.232422 19.296875 L 7.59375 25 L 13.232422 30.703125 A 1.0001 1.0001 0 1 0 14.654297 29.296875 L 11.394531 26 L 23.943359 26 A 1.0001 1.0001 0 1 0 23.943359 24 L 11.394531 24 L 14.654297 20.703125 A 1.0001 1.0001 0 0 0 13.917969 18.990234 z" font-weight="400" font-family="sans-serif" overflow="visible"/>
</svg>
